<svg width="256" height="256" viewBox="0 0 256 256" fill="none" xmlns="http://www.w3.org/2000/svg">
<rect width="256" height="256" rx="12" fill="#090909"/>
<path d="M143.208 85.4166H146.249C156.091 85.4166 161.012 85.4166 165.052 86.4901C176.146 89.4385 184.811 98.1035 187.759 109.198C188.833 113.237 188.833 118.158 188.833 128C188.833 137.842 188.833 142.763 187.759 146.802C184.811 157.896 176.146 166.561 165.052 169.51C161.012 170.583 156.091 170.583 146.249 170.583H143.208M112.791 170.583H109.749C99.9074 170.583 94.9864 170.583 90.947 169.51C79.8529 166.561 71.1879 157.896 68.2395 146.802C67.166 142.763 67.166 137.842 67.166 128C67.166 118.158 67.166 113.237 68.2395 109.198C71.1879 98.1035 79.8529 89.4385 90.947 86.4901C94.9864 85.4166 99.9074 85.4166 109.749 85.4166H112.791M103.666 128H152.333" stroke="#A6F236" stroke-width="8" stroke-linecap="round" stroke-linejoin="round"/>
</svg>
